<svg id="Capa_1" enable-background="new 0 0 512.006 512.006" height="512" viewBox="0 0 512.006 512.006" width="512" xmlns="http://www.w3.org/2000/svg"><g><path d="m378.265 98.418c-3.905 3.905-3.905 10.237 0 14.143l21.21 21.21c3.905 3.905 10.237 3.905 14.143 0 3.905-3.905 3.905-10.237 0-14.143l-21.21-21.21c-3.906-3.905-10.238-3.905-14.143 0z"/><path d="m335.835 140.849c-3.905 3.905-3.905 10.237 0 14.143l21.21 21.21c3.905 3.905 10.237 3.905 14.143 0 3.905-3.905 3.905-10.237 0-14.143l-21.21-21.21c-3.906-3.906-10.238-3.906-14.143 0z"/><path d="m293.405 183.268c-3.905 3.905-3.905 10.237 0 14.143l21.22 21.22c3.905 3.905 10.237 3.905 14.143 0 3.905-3.905 3.905-10.237 0-14.143l-21.22-21.22c-3.906-3.905-10.238-3.905-14.143 0z"/><path d="m250.984 225.699c-3.905 3.905-3.905 10.237 0 14.143l21.21 21.21c3.905 3.905 10.237 3.905 14.143 0 3.905-3.905 3.905-10.237 0-14.143l-21.21-21.21c-3.905-3.906-10.237-3.906-14.143 0z"/><path d="m32.298 500.943c21.718 14.181 51.114 14.729 73.144 1.429 19.019-11.477 31.43-30.417 34.05-51.965 1.912-15.729 9.8-31.221 22.208-43.619l65.042-64.933c12.378 9.269 27.145 13.916 41.918 13.916 14.772 0 29.537-4.646 41.914-13.913l14.65 14.654c3.905 3.905 10.237 3.905 14.143 0 3.905-3.905 3.905-10.237 0-14.143l-14.137-14.14 28.285-28.284 14.14 14.136c3.905 3.905 10.237 3.905 14.142 0s3.905-10.237 0-14.142l-14.139-14.135 28.285-28.284 14.141 14.142c3.905 3.905 10.237 3.905 14.143 0 3.905-3.905 3.905-10.237 0-14.143l-14.141-14.141 28.283-28.282 14.135 14.135c3.905 3.905 10.237 3.905 14.143 0 3.905-3.905 3.905-10.237 0-14.143l-14.135-14.135 28.283-28.282 14.139 14.139c3.905 3.905 10.237 3.905 14.143 0 3.905-3.905 3.905-10.237 0-14.143l-14.656-14.656c16.719-22.325 18.762-52.854 4.297-77.414-2.803-4.758-8.932-6.344-13.692-3.542-4.759 2.803-6.344 8.933-3.542 13.692 9.826 16.683 8.981 37.229-1.408 52.919l-13.43-13.43c-3.905-3.905-10.237-3.905-14.143 0-3.905 3.905-3.905 10.237 0 14.143l14.149 14.149-28.283 28.282-14.143-14.143c-3.905-3.905-10.237-3.905-14.143 0-3.905 3.905-3.905 10.237 0 14.143l14.143 14.143-28.283 28.282-14.146-14.146c-3.906-3.906-10.237-3.905-14.142 0s-3.906 10.237 0 14.142l14.146 14.147-28.287 28.285-14.149-14.146c-3.907-3.905-10.239-3.903-14.142.003-3.904 3.906-3.903 10.238.003 14.142l14.145 14.142-28.282 28.28-14.141-14.144c-3.904-3.906-10.236-3.908-14.142-.003-3.906 3.904-3.908 10.236-.003 14.142l13.433 13.437c-19.403 12.835-45.855 10.718-62.929-6.356l-42.43-42.43c-17.074-17.075-19.192-43.527-6.357-62.929l13.436 13.433c3.905 3.903 10.237 3.904 14.142-.003 3.904-3.906 3.903-10.238-.003-14.142l-14.143-14.14 28.282-28.28 14.139 14.143c3.902 3.904 10.234 3.91 14.142.003 3.906-3.904 3.908-10.236.003-14.142l-14.142-14.146 28.287-28.285 14.142 14.142c3.905 3.905 10.237 3.905 14.143 0 3.905-3.905 3.905-10.237 0-14.143l-14.141-14.141 28.283-28.282 14.135 14.135c3.905 3.905 10.237 3.905 14.143 0 3.905-3.905 3.905-10.237 0-14.143l-14.135-14.135 28.284-28.282 14.14 14.14c3.905 3.905 10.237 3.905 14.142 0s3.905-10.237 0-14.142l-13.43-13.43c15.765-10.45 36.397-11.25 53.131-1.283 4.745 2.827 10.882 1.271 13.708-3.474s1.271-10.882-3.474-13.708c-24.627-14.669-55.28-12.691-77.71 4.122l-14.657-14.659c-3.906-3.906-10.237-3.905-14.142 0s-3.906 10.237 0 14.142l14.149 14.149-28.284 28.281-14.143-14.143c-3.905-3.905-10.237-3.905-14.143 0-3.905 3.905-3.905 10.237 0 14.143l14.142 14.142-28.283 28.282-14.147-14.146c-3.905-3.905-10.237-3.905-14.142 0s-3.905 10.237 0 14.142l14.146 14.146-28.285 28.284-14.138-14.142c-3.906-3.905-10.237-3.905-14.142 0s-3.906 10.237 0 14.142l14.138 14.142-28.285 28.284-14.141-14.137c-3.905-3.905-10.237-3.905-14.143 0-3.905 3.905-3.905 10.237 0 14.143l14.654 14.65c-18.532 24.751-18.534 59.066-.006 83.819l-65.017 64.908c-12.663 12.664-27.827 20.519-42.704 22.12-15.795 1.708-30.692 8.847-41.946 20.101-14.983 14.98-22.317 35.672-20.123 56.766 2.195 21.096 13.829 39.965 31.916 51.766zm2.349-94.392c8.156-8.157 18.515-13.122 29.949-14.358 19.675-2.117 38.591-11.751 54.695-27.856l64.509-64.401 28.288 28.288-64.52 64.412c-15.561 15.549-25.479 35.208-27.928 55.356-1.873 15.399-10.814 28.979-24.532 37.256-15.622 9.432-36.469 9.008-51.877-1.054-13.021-8.495-21.387-22.013-22.956-37.087-1.568-15.072 3.67-29.854 14.372-40.556z"/><circle cx="459.875" cy="52.364" r="10"/></g></svg>