<svg id="Capa_1" enable-background="new 0 0 511.922 511.922" height="512" viewBox="0 0 511.922 511.922" width="512" xmlns="http://www.w3.org/2000/svg"><g><circle cx="291.005" cy="220.913" r="10"/><path d="m199.017 383.609c-.002.002-.004.004-.006.006-15.582 15.595-15.582 40.971.006 56.572 15.595 15.581 40.97 15.582 56.572-.006 15.582-15.596 15.582-40.971-.006-56.573-15.596-15.581-40.971-15.581-56.566.001zm42.43 42.43c-7.8 7.793-20.493 7.795-28.288.006-7.794-7.801-7.794-20.494 0-28.294 7.801-7.788 20.49-7.787 28.281 0 7.795 7.801 7.795 20.494.007 28.288z"/><path d="m71.736 256.329c-.002.002-.004.004-.006.006-15.582 15.596-15.582 40.971.006 56.572 15.595 15.582 40.97 15.581 56.572-.006 15.582-15.596 15.582-40.971-.006-56.572-15.594-15.581-40.969-15.582-56.566 0zm42.431 42.43c-7.801 7.794-20.494 7.793-28.288.006-7.793-7.8-7.794-20.49-.003-28.291 7.801-7.792 20.492-7.791 28.285-.003 7.794 7.801 7.794 20.493.006 28.288z"/><circle cx="390.005" cy="202.913" r="10"/><path d="m498.929 12.995c-15.58-15.592-40.636-17.377-58.33-4.117l-269.978 204.92c-38.654-38.533-101.87-39.335-141.307.113-39.083 39.072-39.088 102.335-.001 141.423 28.056 28.055 68.576 35.795 103.478 23.752-11.99 34.62-4.552 75.172 23.801 103.517 39.071 39.082 102.334 39.091 141.413.002 39.346-39.336 38.767-102.558.11-141.303l73.039-96.227c3.339-4.399 2.479-10.672-1.919-14.011-4.398-3.338-10.672-2.48-14.011 1.919l-78.555 103.494c-3.244 4.273-2.537 10.346 1.602 13.76 1.927 1.589 3.803 3.299 5.594 5.099 31.263 31.255 31.271 81.863-.002 113.127-31.255 31.264-81.863 31.272-113.128-.002-31.261-31.252-31.272-81.855-.006-113.119.003-.003 84.857-84.867 84.857-84.867 2.364-2.364 3.39-5.753 2.734-9.032l-15.47-77.36 209.792-159.238c9.731-7.293 23.548-6.312 32.145 2.292 8.597 8.59 9.58 22.407 2.323 32.09l-77.496 102.1c-3.339 4.399-2.479 10.672 1.919 14.011 4.398 3.338 10.672 2.48 14.011-1.919l77.533-102.149c13.225-17.645 11.439-42.701-4.148-58.275zm-342.334 328.196c-31.198 31.188-81.952 31.189-113.139.001-31.264-31.264-31.274-81.872.001-113.139 31.257-31.266 81.866-31.269 113.136 0 1.797 1.797 3.509 3.679 5.088 5.593 3.414 4.14 9.485 4.846 13.76 1.602l49.702-37.725 12.517 62.593z"/></g></svg>