<svg id="Capa_1" enable-background="new 0 0 512.002 512.002" height="512" viewBox="0 0 512.002 512.002" width="512" xmlns="http://www.w3.org/2000/svg"><g><path d="m351.258 247.495c-2.949-1.822-6.63-1.988-9.729-.438l-43.542 21.771c-18.861-14.958-38.45-22.827-56.986-22.827-45.28 0-85 25.701-85 55s39.72 55 85 55c18.536 0 38.125-7.868 56.986-22.827l43.542 21.771c3.101 1.55 6.781 1.384 9.729-.438s4.743-5.041 4.743-8.506v-90c0-3.465-1.795-6.684-4.743-8.506zm-15.257 82.326-34.908-17.454c-3.62-1.809-7.974-1.26-11.031 1.396-11.675 10.145-29.665 22.238-49.061 22.238-37.706 0-65-20.906-65-35s27.294-35 65-35c19.396 0 37.386 12.093 49.061 22.238 3.055 2.656 7.41 3.206 11.031 1.396l34.908-17.454z"/><circle cx="256.001" cy="502.001" r="10"/><path d="m96.001 100.002v402c0 5.523 4.477 10 10 10h105c5.523 0 10-4.477 10-10s-4.477-10-10-10h-95v-40h280v40h-95c-5.523 0-10 4.477-10 10s4.477 10 10 10h105c5.523 0 10-4.477 10-10v-402c0-5.523-4.477-10-10-10-14.772 0-55.872 0-71.83 0-64.388 0-124.145-31.98-159.849-85.546-3.063-4.596-9.271-5.838-13.867-2.774-4.596 3.063-5.838 9.271-2.774 13.867 21.871 32.813 51.924 58.273 86.481 74.454h-138.16c-5.524-.001-10.001 4.476-10.001 9.999zm20 331.999v-262h280v262zm280-321.999v40h-280v-40z"/></g></svg>