<svg id="Capa_1" enable-background="new 0 0 512.004 512.004" height="512" viewBox="0 0 512.004 512.004" width="512" xmlns="http://www.w3.org/2000/svg"><g><circle cx="313.832" cy="241.004" r="10"/><circle cx="283.832" cy="211.004" r="10"/><circle cx="223.832" cy="211.004" r="10"/><circle cx="193.832" cy="241.004" r="10"/><path d="m253.832 246.004c-22.43 0-40 16.88-40 38.43 0 14.905 8.278 21.192 15.222 23.842 7.15 2.728 15.713 2.728 24.778 2.728s17.628 0 24.778-2.728c6.944-2.649 15.222-8.937 15.222-23.842 0-21.55-17.57-38.43-40-38.43zm17.649 43.586c-3.707 1.414-10.479 1.414-17.649 1.414s-13.942 0-17.649-1.414c-1.365-.521-2.351-.897-2.351-5.156 0-10.679 8.411-18.43 20-18.43s20 7.751 20 18.43c0 4.259-.986 4.635-2.351 5.156z"/><circle cx="255.833" cy="502.004" r="10"/><path d="m436.932 492.004h-136.1c-5.523 0-10 4.478-10 10s4.477 10 10 10h137c9.185 0 19.151-3.879 26.991-11.719 7.552-7.553 11.711-17.596 11.711-28.281s-4.159-20.729-11.711-28.281l-28.175-28.175c-4.532-4.526-6.515-11.115-5.302-17.636 15.08-81.593 16.342-175.547 4.69-255.468-3.605-24.604 5.591-49.323 22.707-66.438l6.083-6.083c15.582-15.595 15.582-40.971-.006-56.572-15.602-15.589-40.979-15.587-56.568.003l-6.388 6.388c-47.596-12.924-96.679-19.561-145.996-19.738-49.466-.182-98.811 6.151-146.647 18.816l-5.471-5.471c-15.594-15.581-40.97-15.582-56.572.007-15.582 15.595-15.582 40.971.003 56.569.561.833 26.421 22.554 25.226 59.776-.088 2.925-.351 5.847-.781 8.686-12.307 81.27-11.377 178.619 4.854 263.598 1.246 6.543-.73 13.17-5.288 17.728l-24.01 24.011c-7.552 7.552-11.711 17.596-11.711 28.281s4.159 20.729 11.711 28.28c7.264 7.265 16.832 11.381 27.056 11.69.198.012.395.03.596.03h136c5.523 0 10-4.478 10-10s-4.477-10-10-10h-135.362c-5.345 0-10.37-2.082-14.149-5.861-7.796-7.796-7.796-20.481 0-28.277l24.01-24.011c9.244-9.244 13.279-22.557 10.791-35.617-.396-2.075-.77-4.155-1.146-6.234h317.108c-.137.755-.266 1.506-.406 2.261-2.417 12.999 1.633 26.246 10.83 35.43l28.17 28.17c7.796 7.796 7.796 20.481 0 28.277-5.868 5.869-10.581 5.409-13.748 5.861zm-345.533-350.622c.069-.456.125-.919.187-1.378h324.055c.158 1.788.347 3.57.605 5.333 10.44 71.607 10.093 153.696-.849 226.667h-323.729c-11.135-74.424-11.272-157.958-.269-230.622zm-30.073-85.596c-7.794-7.801-7.794-20.494-.006-28.288 7.8-7.794 20.494-7.794 28.291-.003l9.56 9.56c2.545 2.546 6.262 3.528 9.73 2.569 47.84-13.197 97.255-19.797 146.895-19.62 49.46.178 98.681 7.093 146.296 20.553 3.484.984 7.23.008 9.791-2.552l10.511-10.51c7.794-7.796 20.486-7.795 28.284-.003 7.794 7.801 7.794 20.494.003 28.291l-6.08 6.08c-16.023 16.023-25.986 36.38-28.632 58.141h-323.813c-3.115-40.001-30.178-63.296-30.83-64.218z"/></g></svg>