<svg id="Capa_1" enable-background="new 0 0 512 512" height="512" viewBox="0 0 512 512" width="512" xmlns="http://www.w3.org/2000/svg"><g><path d="m482 277.266v-111.266c0-38.599-31.402-70-70-70h-56v-20c0-22.056-17.944-40-40-40h-120c-22.056 0-40 17.944-40 40v20h-56c-38.598 0-70 31.401-70 70v111.266c-17.233 4.452-30 20.13-30 38.734s12.767 34.282 30 38.734v51.266c0 38.598 31.402 70 70 70h111c5.523 0 10-4.478 10-10s-4.477-10-10-10h-111c-27.57 0-50-22.43-50-50v-50h146c5.523 0 10-4.478 10-10v-20h100v20c0 5.522 4.477 10 10 10h146v50c0 27.57-22.43 50-50 50h-111c-5.523 0-10 4.478-10 10s4.477 10 10 10h111c38.598 0 70-31.402 70-70v-51.266c17.233-4.452 30-20.13 30-38.734s-12.767-34.282-30-38.734zm-306-201.266c0-11.028 8.972-20 20-20h120c11.028 0 20 8.972 20 20v20h-160zm10 260h-146c-11.028 0-20-8.972-20-20s8.972-20 20-20h146zm20-30v-20c0-5.522-4.477-10-10-10h-146v-110c0-27.57 22.43-50 50-50h312c27.57 0 50 22.43 50 50v110h-146c-5.523 0-10 4.478-10 10v20zm266 30h-146v-40h146c11.028 0 20 8.972 20 20s-8.972 20-20 20z"/><path d="m226 156c-5.523 0-10 4.478-10 10v60c0 5.522 4.477 10 10 10s10-4.478 10-10v-60c0-5.522-4.477-10-10-10z"/><path d="m106 156c-5.523 0-10 4.478-10 10v60c0 5.522 4.477 10 10 10s10-4.478 10-10v-60c0-5.522-4.477-10-10-10z"/><path d="m166 156c-5.523 0-10 4.478-10 10v60c0 5.522 4.477 10 10 10s10-4.478 10-10v-60c0-5.522-4.477-10-10-10z"/><path d="m346 236c5.523 0 10-4.478 10-10v-60c0-5.522-4.477-10-10-10s-10 4.478-10 10v60c0 5.522 4.477 10 10 10z"/><path d="m406 236c5.523 0 10-4.478 10-10v-60c0-5.522-4.477-10-10-10s-10 4.478-10 10v60c0 5.522 4.477 10 10 10z"/><path d="m286 156c-5.523 0-10 4.478-10 10v60c0 5.522 4.477 10 10 10s10-4.478 10-10v-60c0-5.522-4.477-10-10-10z"/><circle cx="256.001" cy="466" r="10"/></g></svg>