<svg id="Capa_1" enable-background="new 0 0 512.009 512.009" height="512" viewBox="0 0 512.009 512.009" width="512" xmlns="http://www.w3.org/2000/svg"><g><circle cx="256" cy="316.005" r="10"/><path d="m510.496 181.295c-5.521-26.906-27.35-48.563-54.319-53.891-40.66-8.031-77.884 19.6-83.466 58.601h-233.423c-4.867-33.878-34.085-60-69.288-60-38.598 0-70 31.402-70 70 0 17.582 6.544 34.389 18.422 47.32 6.523 7.11 6.523 18.249.004 25.355-11.882 12.936-18.426 29.743-18.426 47.325 0 38.598 31.402 70 70 70 35.203 0 64.421-26.122 69.288-60h71.713c5.522 0 10-4.478 10-10s-4.478-10-10-10h-81.001c-5.522 0-10 4.478-10 10 0 27.57-22.43 50-50 50s-50-22.43-50-50c0-12.558 4.672-24.56 13.158-33.799 13.479-14.692 13.479-37.71-.004-52.406-8.482-9.236-13.154-21.238-13.154-33.795 0-27.57 22.43-50 50-50s50 22.43 50 50c0 5.522 4.478 10 10 10h252c5.519 0 10-4.478 10-10 0-30.619 27.708-55.412 60.303-48.979 18.866 3.727 34.74 19.472 38.602 38.288 3.341 16.292-1.055 32.507-12.063 44.49-13.48 14.692-13.48 37.71.004 52.406 11.004 11.979 15.399 28.194 12.059 44.485-3.861 18.817-19.735 34.563-38.601 38.289-32.594 6.435-60.304-18.359-60.304-48.979 0-5.522-4.478-10-10-10h-80.999c-5.522 0-10 4.478-10 10s4.478 10 10 10h71.71c5.589 39.051 42.844 66.619 83.467 58.601 26.969-5.327 48.797-26.984 54.318-53.892 4.646-22.658-1.521-45.269-16.918-62.029-6.523-7.11-6.523-18.249-.004-25.355 15.401-16.766 21.569-39.376 16.922-62.035z"/></g></svg>