<svg id="Layer_1" data-name="Layer 1" xmlns="http://www.w3.org/2000/svg" viewBox="0 0 512 512"><defs><style>.cls-1{fill:#fff;}</style></defs><path class="cls-1" d="M256,512C114.84,512,0,397.16,0,256S114.84,0,256,0,512,114.84,512,256,397.16,512,256,512Zm0-475.43C135,36.57,36.57,135,36.57,256S135,475.43,256,475.43,475.43,377,475.43,256,377,36.57,256,36.57Z"/><path class="cls-1" d="M347.43,365.71a18.22,18.22,0,0,1-12.93-5.35L151.64,177.5a18.29,18.29,0,0,1,25.86-25.86L360.36,334.5a18.28,18.28,0,0,1-12.93,31.21Z"/><path class="cls-1" d="M164.57,365.71a18.28,18.28,0,0,1-12.93-31.21L334.5,151.64a18.29,18.29,0,0,1,25.86,25.86L177.5,360.36A18.22,18.22,0,0,1,164.57,365.71Z"/></svg>