<svg id="Layer_2" data-name="Layer 2" xmlns="http://www.w3.org/2000/svg" viewBox="0 0 1206 989"><path d="M1206,9A946.63,946.63,0,0,0,632,201c-48.23,23.15-86.09,25.38-112,23-35.09-3.23-53.11-15.38-106-25a498.75,498.75,0,0,0-81-8,431.39,431.39,0,0,0-131,16,426.32,426.32,0,0,0-60,22c-13.15,7.08-94.62,52.7-120,154C-2.81,482,44.78,559.16,53,572a562.19,562.19,0,0,0,68,49c54.38,33.34,71.44,31.08,100,59,5.25,5.13,9.34,9.77,54,78,16.16,24.69,25,46,39,60,20,12,40.51,16.18,64,22,122.86,30.45,233-14,290-32,40-4,91.28-10.51,162,7a419,419,0,0,1,165,83c15.15,16.47,51.88,51.83,111,68a234.24,234.24,0,0,0,100,5Z"/></svg>